<?xml version="1.0" encoding="UTF-8"?>
<svg id="Layer_1" xmlns="http://www.w3.org/2000/svg" version="1.1" viewBox="0 0 1200 1200">
  <!-- Generator: Adobe Illustrator 30.5.1, SVG Export Plug-In . SVG Version: 2.1.4 Build 3)  -->
  <defs>
    <style>
      .st0 {
        fill: #f7f1e3;
      }

      .st1 {
        fill: #e08a2b;
      }

      .st2 {
        fill: #3a3f47;
      }
    </style>
  </defs>
  <rect class="st0" width="1200" height="1200"/>
  <g>
    <path class="st2" d="M727.06,743.91c-8.25,14.73-22.7,25.66-38.9,30.27-5.95,1.73-12.19,2.59-18.39,2.43-3.81-.09-7.57-.51-11.39-1.17-22.77-3.89-45.33-15.91-66.95-12.43-2.26.33-4.56.71-6.86,1.22-6.39,1.35-12.85,3.27-19.34,5.2-11.59,3.43-23.32,6.9-35.09,7.19-4.09.09-8.21-.24-12.19-1-8.41-1.46-16.53-4.69-23.74-9.34-8.78-5.58-16.24-13.23-21.35-22.35-11.26-20.22-10.38-46.59,2.21-65.98,12.06-18.5,32.79-29.56,47.06-46.37,10.55-12.48,17.28-27.72,27.46-40.53,10.09-12.72,30.44-24.31,50.31-23.98,19.93-.33,40.27,11.26,50.36,23.98,4.4,5.53,8.12,11.55,11.81,17.54,2.1,3.34,4.14,6.7,6.24,10h.04c1.46,2.35,3.01,4.65,4.65,6.86,1.5,2.1,3.05,4.14,4.73,6.11.84,1,1.73,1.97,2.59,2.92,1.88,2.06,3.85,3.98,5.91,5.91,2.77,2.54,5.62,5.07,8.5,7.54,10.93,9.25,22.28,18.08,30.07,30.02,12.61,19.38,13.47,45.75,2.21,65.98l.04-.02Z"/>
    <path class="st1" d="M585.77,495.21c0,39.69-20.93,71.84-46.73,71.84s-46.68-32.15-46.68-71.84,20.89-71.84,46.68-71.84,46.73,32.15,46.73,71.84Z"/>
    <path class="st1" d="M475.77,645.04c-23.41,10.8-55.84-9.67-72.46-45.67-16.62-36.04-11.08-74.01,12.3-84.78,23.45-10.8,55.89,9.62,72.5,45.67,16.57,36,11.06,73.96-12.35,84.78Z"/>
    <path class="st1" d="M707.59,495.21c0,39.69-20.89,71.84-46.68,71.84s-46.73-32.15-46.73-71.84,20.93-71.84,46.73-71.84,46.68,32.15,46.68,71.84Z"/>
    <path class="st1" d="M796.68,599.35c-16.62,36-49.07,56.48-72.46,45.67-23.45-10.8-28.92-48.76-12.35-84.78,16.62-36.04,49.07-56.48,72.5-45.67,23.41,10.75,28.92,48.72,12.3,84.78Z"/>
    <path class="st0" d="M680.38,634.48c-30.86,8.63-60.58,23.89-80.25,49.32-18.08,22.1-25.42,54.09-15.53,80.42-6.39,1.35-12.85,3.27-19.34,5.2-16.53-53.21,20-108.26,70.07-130.69,12.19-5.82,24.87-10.09,37.72-13.27,1.5,2.1,3.05,4.14,4.73,6.11.84,1,1.73,1.97,2.59,2.92h0Z"/>
    <path class="st0" d="M512.52,727.5c-2.96,16.2-1.26,33.28,5.49,48.1-8.41-1.46-16.53-4.69-23.74-9.34-5.49-27.3,1.31-56.64,14.98-80.71,20.78-35.47,57.94-58.81,96.57-69.12,18.5-4.93,37.43-7.32,56.31-7.88,2.1,3.34,4.14,6.7,6.24,10-68.19,2.92-143.5,35.89-155.85,108.92v.02Z"/>
    <path class="st0" d="M688.16,774.18c-5.95,1.73-12.19,2.59-18.39,2.43-3.81-.09-7.57-.51-11.39-1.17-26.37-25.2-35.53-60.71-9.09-101.07,10.22-14.45,23.83-24.58,36.97-33.98,2.77,2.54,5.62,5.07,8.5,7.54-26.79,19.89-50.02,45.18-45.05,79.87,3.85,21.55,19.51,36.28,38.43,46.37h.02Z"/>
  </g>
</svg>