<?xml version="1.0" encoding="UTF-8"?>
<svg id="Layer_1" xmlns="http://www.w3.org/2000/svg" version="1.1" viewBox="227 520 746 160">
  <!-- Generator: Adobe Illustrator 30.5.1, SVG Export Plug-In . SVG Version: 2.1.4 Build 3)  -->
  <defs>
    <style>
      .st0 {
        fill: #f7f1e3;
      }

      .st1 {
        fill: #e08a2b;
      }

      .st2 {
        fill: #3a3f47;
      }
    </style>
  </defs>
  <g>
    <g>
      <path class="st2" d="M501.65,569.44c1.71,2.38,2.95,5.02,3.73,7.93.79,2.89,1.06,6.39.84,10.48-.15,1.63-.4,3.13-.77,4.51s-.82,2.66-1.34,3.85c-.15.3-.28.58-.39.84-.11.27-.24.54-.39.84-.3.52-.58,1.03-.84,1.51-.27.48-.58.94-.96,1.39-1.49,2.08-3.29,3.78-5.41,5.07-2.12,1.31-4.51,2.4-7.19,3.29-.82.3-1.67.48-2.57.56-.9.07-1.78.23-2.67.45-.45.07-.9.11-1.34.11s-.9.04-1.33.11h-17.01c-1.08,0-1.92.23-2.51.68-.74.52-1.11,1.43-1.11,2.73v18.56c0,.9.02,1.86.05,2.9.04,1.04-.13,1.85-.5,2.44-.3.52-.97.93-2.01,1.23-.52.15-1.08.18-1.67.11-.6-.07-1.19-.11-1.78-.11h-6.47c-.82,0-1.58-.02-2.29-.06-.71-.04-1.28-.24-1.73-.62-.44-.36-.71-.94-.78-1.72-.07-.79-.11-1.59-.11-2.41v-66.69c0-1.04-.02-2.26-.05-3.68-.04-1.4.13-2.41.5-3.01.29-.44.85-.81,1.67-1.11.15-.07.31-.08.5-.05.18.04.35.01.5-.06h32.23c.67,0,1.34-.01,2.01-.06.67-.04,1.29.02,1.89.17h.56c.38.16.79.23,1.23.23s.85.07,1.22.22c.38.07.7.11,1,.11s.63.07,1,.23c1.19.38,2.37.73,3.57,1.05,1.19.34,2.3.8,3.34,1.39.38.3.79.57,1.23.79.45.22.88.52,1.33.9.38.22.69.46.96.73s.57.53.94.84l.67.67c.9.9,1.63,1.78,2.24,2.67ZM489.38,587.74c.15-.82.21-1.84.17-3.07-.05-1.22-.17-2.25-.4-3.06-.45-1.63-1-2.94-1.67-3.91-.67-.97-1.67-1.85-3.01-2.67-1.11-.67-2.49-1.17-4.12-1.5-1.63-.34-3.4-.54-5.29-.62-1.9-.07-3.85-.1-5.86-.06-2.01.04-3.9.06-5.69.06-.22.07-.43.13-.62.17-.18.04-.39.05-.61.05-.74.3-1.23.75-1.45,1.34-.3.59-.44,1.39-.44,2.4v16.29c0,1.08.18,1.91.56,2.51.3.45.74.77,1.34,1,.59.22,1.26.35,2.01.39.74.04,1.54.04,2.4,0,.85-.04,1.65-.05,2.4-.05,3.95,0,7.55-.19,10.82-.57,3.27-.36,5.75-1.67,7.47-3.9.45-.67.81-1.39,1.11-2.18.3-.77.59-1.65.9-2.61Z"/>
      <path class="st2" d="M570.01,634.57c.15.82.24,1.65.28,2.46.04.82-.35,1.38-1.17,1.67-.45.23-.97.34-1.56.34h-7.81c-.67,0-1.32-.01-1.95-.06-.64-.04-1.14-.19-1.51-.5-.52-.3-.91-.73-1.17-1.28-.25-.56-.61-1.02-1.05-1.39-.16-.16-.34-.28-.56-.4-.23-.11-.52-.12-.9-.05-.38.15-.73.34-1.05.56-.34.22-.69.41-1.06.56-.38.3-.79.56-1.22.79-.45.22-.9.44-1.34.67-.97.45-1.97.8-3.01,1.05-1.04.27-2.12.54-3.23.85-.52.15-1.03.23-1.51.28-.48.04-.98.08-1.5.16-.22,0-.45.02-.67.06-.23.04-.45.06-.68.06h-1.22c-.74.15-1.49.15-2.23,0h-1c-.52-.16-1.03-.21-1.51-.17s-.94-.02-1.39-.17c-.74-.15-1.45-.28-2.12-.39-.67-.12-1.29-.33-1.9-.62-2.15-.82-3.99-1.88-5.52-3.18-1.52-1.29-2.73-3.03-3.62-5.18-.23-.52-.44-1.08-.62-1.67-.18-.61-.35-1.23-.5-1.9-.16-.38-.21-.74-.17-1.11s.01-.75-.06-1.11c-.07-.23-.13-.69-.17-1.4-.04-.7-.01-1.2.06-1.5.15-.74.22-1.38.22-1.9.23-.81.45-1.65.68-2.51.22-.86.52-1.62.88-2.29,1.27-2.15,2.72-3.79,4.36-4.91,1.63-1.11,3.72-2.07,6.24-2.89.97-.38,1.97-.63,3.01-.79,1.04-.15,2.08-.33,3.12-.56.59-.15,1.22-.24,1.89-.28.68-.04,1.34-.12,2.01-.28.52-.15,1.04-.21,1.56-.17.52.05,1.08-.01,1.68-.16.52-.16,1.04-.23,1.56-.23s1.08-.07,1.67-.22c1.56-.38,2.99-.69,4.3-.96,1.29-.25,2.47-.91,3.51-1.95.67-.67,1.11-1.42,1.34-2.23.07-.23.08-.41.05-.56-.04-.16-.01-.3.06-.45s.11-.38.11-.67v-.68c-.07-.29-.13-.59-.17-.9-.04-.29-.1-.56-.17-.77-.74-2.23-2.3-3.75-4.68-4.57-.67-.22-1.46-.39-2.4-.5-.93-.12-1.88-.16-2.84-.12-.97.05-1.9.13-2.78.28-.9.16-1.68.34-2.35.57-.45.15-.87.35-1.28.61-.41.27-.8.54-1.17.84-.36.3-.76.71-1.16,1.23-.41.52-.69,1-.84,1.45-.38.74-.69,1.44-.96,2.12-.25.67-.8,1.11-1.61,1.33-.61.16-1.23.23-1.9.23h-6.24c-.38,0-.75.01-1.11.05-.38.04-.71.02-1-.05h-1c-.16-.07-.34-.12-.56-.12-.23,0-.41-.07-.56-.22-.61-.15-1-.63-1.23-1.45-.07-.36-.07-.74,0-1.11.07-.38.15-.7.23-1,.22-.81.46-1.57.73-2.29.25-.7.57-1.36.94-1.95.22-.38.45-.74.67-1.11.23-.38.45-.75.67-1.11.61-.82,1.34-1.6,2.24-2.35.15-.07.36-.25.67-.56.38-.3.7-.56,1-.79.3-.22.63-.44,1-.67,1.26-.81,2.6-1.46,4.02-1.95,1.4-.48,2.86-.94,4.34-1.39.9-.23,1.83-.38,2.8-.45.96-.07,1.92-.23,2.89-.45.3-.07.76-.07,1.39,0,.64.07,1.03.04,1.17-.11,3.05-.07,5.97.04,8.76.33,2.78.3,5.31.86,7.58,1.68,2.28.81,4.22,1.91,5.86,3.28,1.63,1.38,2.9,3.15,3.8,5.3.51,1.27.81,2.72.88,4.36.07,1.63.11,3.3.11,5.01v29.16c0,1.45.16,2.77.45,3.97.07.22.12.46.12.71s.04.51.11.73ZM553.61,617.4c.07-.38.11-.8.11-1.28s-.04-.91-.11-1.28c-.15-.45-.22-.85-.22-1.22s-.16-.68-.45-.9c-.38-.29-.93-.45-1.68-.45-.29.07-.56.13-.77.17s-.48.1-.79.17c-.52.15-1.08.25-1.67.33-.59.08-1.19.19-1.78.34-.23.07-.56.11-1,.11-.97.23-1.94.38-2.9.45-.97.07-1.89.27-2.78.56-.59.16-1.16.28-1.67.4-.53.11-1.05.28-1.56.5-1.57.67-2.89,1.67-3.97,3.01-1.08,1.33-1.46,3.19-1.16,5.58.15,1.26.56,2.3,1.22,3.12.52.81,1.29,1.46,2.34,1.95,1.04.48,2.18.84,3.41,1.06,1.22.22,2.52.28,3.9.16,1.38-.11,2.66-.35,3.85-.73,1.94-.59,3.46-1.54,4.57-2.84,1.11-1.29,1.97-2.92,2.57-4.84.15-.52.24-1.06.28-1.62.04-.56.13-1.14.28-1.73v-1Z"/>
      <path class="st2" d="M582.05,581.37h8.25c.82,0,1.6.02,2.35.06.74.04,1.33.21,1.78.5.45.3.8.69,1.06,1.17.25.48.46,1.04.61,1.67.16.64.3,1.27.45,1.9.16.63.3,1.21.45,1.73.9,2.6,1.66,5.28,2.29,8.02.63,2.76,1.36,5.47,2.18,8.14.15.45.25.88.33,1.28.07.41.19.84.34,1.28.38,1.11.69,2.25.94,3.4.27,1.16.58,2.29.96,3.4.15.52.33,1.13.56,1.79.22.67.63,1.08,1.22,1.22.38.07.68-.12.9-.61.22-.48.41-.85.56-1.06.38-1.04.65-2.12.84-3.23.18-1.11.46-2.19.84-3.24.23-.67.41-1.36.56-2.06.16-.7.3-1.39.45-2.07.52-1.78.99-3.59,1.39-5.46.41-1.86.88-3.68,1.4-5.47.22-.81.4-1.6.56-2.34.15-.75.33-1.49.56-2.24.29-1.11.59-2.44.88-4.01.3-1.56.86-2.64,1.68-3.24.52-.29,1.11-.46,1.78-.5.67-.04,1.42-.06,2.24-.06h5.8c.88,0,1.71.04,2.44.12.75.07,1.38.29,1.9.67.38.29.63.69.79,1.17.15.48.29.94.45,1.39.29,1.04.53,2.06.71,3.06.19,1,.47,2.03.85,3.07.88,2.89,1.65,5.87,2.28,8.92.64,3.05,1.37,6.03,2.18,8.92.3.9.54,1.8.73,2.73.18.93.42,1.8.73,2.63.29,1.04.59,1.82.9,2.34.07.07.17.13.28.17s.21.13.28.28c.67-.07,1.09-.31,1.28-.73.18-.41.39-.87.61-1.39.45-1.19.82-2.43,1.13-3.74.29-1.29.63-2.58,1-3.85.22-.74.4-1.46.56-2.17.15-.71.33-1.44.56-2.18.81-2.31,1.49-4.65,2.01-7.03.52-2.37,1.15-4.68,1.89-6.91.38-1.04.71-2.29,1-3.74.3-1.45.79-2.43,1.45-2.95.52-.38,1.11-.59,1.79-.67.67-.08,1.4-.12,2.23-.12h7.81c.67,0,1.22.08,1.67.23.75.29,1.15.77,1.23,1.45.07.67-.05,1.4-.34,2.23-.52,1.71-1.03,3.36-1.5,4.96-.5,1.6-1.03,3.26-1.62,4.96-1.79,5.43-3.51,10.88-5.19,16.34-1.67,5.47-3.4,10.92-5.18,16.34-.38,1.2-.73,2.37-1.06,3.52-.33,1.15-.69,2.32-1.05,3.51-.3.82-.58,1.55-.84,2.18-.27.63-.76,1.09-1.51,1.39-.74.38-1.71.52-2.89.45-1.2-.07-2.28-.11-3.24-.11-1.19,0-2.67.01-4.45.05-1.79.04-3.05-.12-3.8-.5-.45-.38-.77-.8-1-1.28-.22-.48-.4-1.03-.56-1.62-.38-1.04-.65-2.06-.84-3.06-.18-1-.42-2.03-.73-3.07-.22-.67-.41-1.36-.56-2.06-.15-.71-.38-1.44-.67-2.18-.67-2.15-1.25-4.38-1.73-6.69-.48-2.3-1.1-4.57-1.84-6.8-.45-1.34-.82-2.75-1.11-4.24-.3-1.49-.9-2.69-1.79-3.57-.74,0-1.21.28-1.39.84-.18.56-.39,1.14-.62,1.73-.52,1.49-.91,2.98-1.16,4.45-.27,1.49-.65,2.98-1.17,4.47-.82,2.67-1.5,5.41-2.07,8.19-.56,2.8-1.25,5.53-2.06,8.2-.15.52-.3,1.11-.45,1.78-.15.67-.3,1.31-.45,1.9s-.35,1.15-.61,1.67c-.27.52-.58.93-.96,1.22-.38.3-.9.47-1.56.51-.67.04-1.42.06-2.23.06h-9.15c-.45-.07-.86-.16-1.22-.23-.38-.07-.71-.18-1-.34-.52-.36-.9-.88-1.11-1.56-.23-.67-.45-1.33-.68-2-.36-1.13-.74-2.28-1.11-3.46-.38-1.19-.74-2.38-1.11-3.57-1.86-5.51-3.62-11-5.3-16.51-1.67-5.51-3.4-11-5.18-16.51-.52-1.49-1-2.94-1.45-4.34-.45-1.42-.9-2.83-1.34-4.25-.15-.44-.31-1.05-.5-1.84-.19-.77-.13-1.39.17-1.84.22-.29.7-.59,1.44-.88.45,0,.75-.04.9-.12Z"/>
      <path class="st2" d="M698.49,559.52h2.29c.85,0,1.71.04,2.57.11.85.07,1.62.21,2.29.39.67.19,1.11.47,1.33.85.45.59.68,1.43.68,2.51v3.06c0,.75-.02,1.49-.06,2.24-.04.74-.21,1.29-.5,1.67-.3.45-.68.73-1.13.84-.44.11-.94.17-1.5.17s-1.11-.02-1.67-.06-1.1-.01-1.62.06c-1.33.3-2.38.65-3.12,1.05-.74.41-1.33,1.25-1.78,2.52-.16.22-.21.42-.17.61.04.19.01.4-.06.62-.07.3-.15.75-.22,1.34s-.07,1.08,0,1.45c.15.52.33.96.56,1.33.22.38.56.67,1,.9.74.38,1.63.48,2.67.34,1.04-.16,2.01-.16,2.9,0,.36.07.68.08.94.05.25-.04.53-.01.84.06.67.29,1.15.63,1.45,1,.15.22.25.57.34,1.05.07.48.15,1,.22,1.56.07.56.1,1.11.06,1.68-.05.56-.1.98-.17,1.28-.07.29-.07.57,0,.84.07.25.04.53-.11.84-.16.88-.61,1.45-1.34,1.67-.59.3-1.31.42-2.12.39-.82-.04-1.63-.05-2.46-.05h-.77c-.3,0-.56.04-.79.11h-.9c-1.26.29-2.05,1.11-2.34,2.46-.16.44-.19.97-.11,1.56.07.59.11,1.19.11,1.78v33.8c0,.44.01.91.05,1.39.04.48-.01.91-.16,1.28v1.22c0,1.19-.19,2.05-.56,2.57-.16.22-.41.39-.79.51-.38.11-.74.24-1.11.39h-.56c-.38.07-.79.1-1.23.05-.44-.04-.85-.05-1.22-.05h-4.9c-.53,0-1.06.01-1.62.05-.56.05-1.03-.01-1.39-.16-.9-.23-1.49-.61-1.79-1.13-.22-.36-.35-.85-.39-1.44-.04-.61-.06-1.2-.06-1.79v-37.03c0-1.26-.07-2.36-.22-3.28-.15-.93-.67-1.59-1.56-1.96-.82-.36-1.83-.46-3.01-.28-1.19.19-2.19.1-3.01-.28-.81-.36-1.33-1-1.56-1.89-.15-.38-.21-.82-.17-1.34.05-.52.06-1.04.06-1.56,0-1.34.07-2.46.22-3.35.16-.88.79-1.51,1.9-1.89.59-.15,1.22-.23,1.9-.23h1.95c.63,0,1.21-.05,1.73-.16.52-.12.93-.4,1.22-.85.52-.74.73-1.68.62-2.84-.11-1.15-.06-2.24.17-3.28.07-.3.12-.61.17-.9.04-.3.08-.63.16-1,.3-1.04.61-1.98.9-2.84.3-.86.7-1.66,1.23-2.4,1.04-1.79,2.41-3.22,4.13-4.3,1.71-1.08,3.63-1.91,5.8-2.51.59-.23,1.22-.36,1.89-.4.68-.04,1.34-.12,2.01-.28.23-.07.56-.07,1,0,.45.07.75.04.9-.11Z"/>
      <path class="st2" d="M735.63,559.52h2.29c.85,0,1.71.04,2.57.11.85.07,1.62.21,2.29.39.67.19,1.11.47,1.33.85.45.59.68,1.43.68,2.51v3.06c0,.75-.02,1.49-.06,2.24-.04.74-.21,1.29-.5,1.67-.3.45-.68.73-1.13.84-.44.11-.94.17-1.5.17s-1.11-.02-1.67-.06c-.56-.04-1.1-.01-1.62.06-1.33.3-2.38.65-3.12,1.05-.74.41-1.33,1.25-1.78,2.52-.16.22-.21.42-.17.61.04.19.01.4-.06.62-.07.3-.15.75-.22,1.34-.07.59-.07,1.08,0,1.45.15.52.33.96.56,1.33.22.38.56.67,1,.9.74.38,1.63.48,2.67.34,1.04-.16,2.01-.16,2.9,0,.36.07.68.08.94.05.25-.04.53-.01.84.06.67.29,1.15.63,1.45,1,.15.22.25.57.34,1.05.07.48.15,1,.22,1.56.07.56.1,1.11.06,1.68-.05.56-.1.98-.17,1.28-.07.29-.07.57,0,.84.07.25.04.53-.11.84-.16.88-.61,1.45-1.34,1.67-.59.3-1.31.42-2.12.39-.82-.04-1.63-.05-2.46-.05h-.77c-.3,0-.56.04-.79.11h-.9c-1.26.29-2.05,1.11-2.34,2.46-.16.44-.19.97-.11,1.56.07.59.11,1.19.11,1.78v33.8c0,.44.01.91.05,1.39s-.01.91-.16,1.28v1.22c0,1.19-.19,2.05-.56,2.57-.16.22-.41.39-.79.51-.38.11-.74.24-1.11.39h-.56c-.38.07-.79.1-1.23.05-.44-.04-.85-.05-1.22-.05h-4.9c-.53,0-1.06.01-1.62.05-.56.05-1.03-.01-1.39-.16-.9-.23-1.49-.61-1.79-1.13-.22-.36-.35-.85-.39-1.44-.04-.61-.06-1.2-.06-1.79v-37.03c0-1.26-.07-2.36-.22-3.28-.15-.93-.67-1.59-1.56-1.96-.82-.36-1.83-.46-3.01-.28-1.19.19-2.19.1-3.01-.28-.81-.36-1.33-1-1.56-1.89-.15-.38-.21-.82-.17-1.34.05-.52.06-1.04.06-1.56,0-1.34.07-2.46.22-3.35.16-.88.79-1.51,1.9-1.89.59-.15,1.22-.23,1.9-.23h1.95c.63,0,1.21-.05,1.73-.16.52-.12.93-.4,1.22-.85.52-.74.73-1.68.62-2.84-.11-1.15-.06-2.24.17-3.28.07-.3.12-.61.17-.9.04-.3.08-.63.16-1,.3-1.04.61-1.98.9-2.84.3-.86.7-1.66,1.23-2.4,1.04-1.79,2.41-3.22,4.13-4.3,1.71-1.08,3.63-1.91,5.8-2.51.59-.23,1.22-.36,1.89-.4.68-.04,1.34-.12,2.01-.28.23-.07.56-.07,1,0,.45.07.75.04.9-.11Z"/>
      <path class="st2" d="M807.44,609.7c.16.59.16,1.27,0,2.01-.15.75-.41,1.22-.77,1.45-.38.3-.92.5-1.62.62-.7.11-1.49.18-2.34.22-.86.04-1.72.04-2.57,0-.86-.04-1.62-.06-2.29-.06h-28.72c-.48,0-.92.08-1.28.23-.61.29-.97.59-1.13.9-.15.15-.29.42-.44.84-.16.41-.19.8-.12,1.16.16.45.24.88.28,1.28.04.41.13.85.28,1.28.61,1.79,1.32,3.26,2.18,4.41.86,1.16,2.02,2.18,3.51,3.07.61.38,1.21.62,1.85.73.63.11,1.28.28,1.95.5.59.16,1.4.27,2.46.34,1.04.07,1.92.04,2.67-.11h1c.74-.16,1.43-.31,2.06-.51.63-.18,1.25-.39,1.84-.61.75-.38,1.59-.86,2.52-1.45.92-.59,1.61-1.19,2.06-1.79.38-.52.76-1.02,1.17-1.5s.91-.84,1.5-1.06c.75-.36,1.69-.53,2.84-.5,1.15.04,2.21.05,3.18.05.45,0,.91-.01,1.39-.05.48-.04.91.01,1.28.17h1.11c.75.15,1.27.33,1.56.56.3.15.47.48.51,1,.04.52-.02.97-.17,1.33-.38,1.04-.79,1.97-1.22,2.8-.45.81-.97,1.63-1.56,2.44-1.65,2.46-3.5,4.43-5.58,5.92-2.08,1.49-4.68,2.75-7.81,3.79-.82.3-1.65.48-2.46.56-.82.07-1.67.23-2.57.45-.3.07-.62.1-.94.06-.34-.04-.65-.02-.96.05h-1.22c-.38.16-.8.21-1.28.17-.48-.04-.91-.1-1.28-.17-.59-.07-1.11-.07-1.56,0-.45.07-.93.04-1.45-.11-.38-.15-.77-.22-1.22-.22s-.86-.07-1.23-.23c-.81-.15-1.63-.31-2.44-.5-.82-.18-1.56-.46-2.24-.84-.81-.3-1.57-.58-2.29-.84-.7-.27-1.36-.58-1.95-.96-2.38-1.49-4.5-3.21-6.35-5.18-1.86-1.97-3.39-4.26-4.57-6.86-.38-.82-.67-1.66-.9-2.51-.22-.86-.52-1.73-.9-2.63-.07-.29-.11-.58-.11-.84s-.04-.54-.11-.84c-.3-.9-.48-1.86-.56-2.9-.07-1.04-.15-2.08-.23-3.12,0-.38-.01-.77-.05-1.22s-.02-.86.05-1.23v-1.33l.34-2.67c.3-1.27.56-2.49.79-3.69.22-1.19.56-2.3,1-3.34,3.19-7.73,8.62-13.2,16.28-16.4,1.04-.45,2.11-.76,3.18-.94,1.08-.18,2.21-.42,3.4-.73.59-.07,1.15-.11,1.67-.11s1.08-.04,1.67-.11c3.8-.08,7.04.35,9.77,1.28,2.71.92,5.14,2.13,7.3,3.62.68.45,1.34.94,2.01,1.5.68.57,1.27,1.14,1.79,1.73.22.38.52.68.88.9.61.82,1.16,1.66,1.68,2.51.52.86,1.08,1.73,1.67,2.63.38.67.69,1.36.94,2.06.27.71.54,1.48.84,2.29.38.97.68,1.97.9,3.01.23,1.04.48,2.08.79,3.12.15.61.19,1.25.16,1.96-.04.7.02,1.36.17,1.95v1.22ZM790.72,603.12c.52-.74.57-1.65.17-2.72-.41-1.08-.73-1.88-.96-2.4-1.04-2.01-2.41-3.56-4.13-4.63-1.71-1.08-4.09-1.66-7.13-1.73-.23.16-.48.19-.79.11-.3-.07-.56-.07-.77,0-.38.16-.79.24-1.23.28-.45.05-.86.13-1.22.28-3.28,1.05-5.69,3.1-7.25,6.14-.16.3-.31.69-.51,1.17-.18.48-.31.97-.39,1.45-.07.48-.06.94.06,1.39.11.45.35.82.73,1.11.59.38,1.4.56,2.44.56h15.39c1.04,0,2.14-.01,3.29-.05,1.15-.04,1.91-.35,2.29-.96Z"/>
      <path class="st2" d="M821.83,581.6h8.36c.82,0,1.57.04,2.24.11.67.07,1.15.34,1.45.77.36.45.59,1.06.67,1.85.07.77.11,1.57.11,2.4v24.42c0,2.67.11,5.2.34,7.59.22,2.37.88,4.34,2.01,5.91,1.04,1.56,2.71,2.67,5.01,3.35.38.07.69.11.96.11s.57.04.94.11.79.11,1.22.11.79-.04,1-.11c.38-.15.69-.18.96-.11.25.07.53.04.84-.11,1.56-.38,2.78-.86,3.68-1.45,1.34-.82,2.4-1.88,3.18-3.18.77-1.29,1.33-2.75,1.67-4.34.33-1.6.53-3.39.62-5.36.07-1.96.11-4.03.11-6.18v-22.81c0-.7.15-1.28.45-1.73.36-.67.92-1.05,1.67-1.16.74-.12,1.63-.17,2.67-.17h8.04c.67,0,1.22.15,1.67.45.59.36.93.93,1,1.67.07.74.11,1.6.11,2.57v49.97c0,.74-.15,1.29-.45,1.67-.38.59-.93.93-1.67,1-.75.07-1.52.11-2.35.11h-6.01c-.82,0-1.55-.04-2.18-.11-.63-.07-1.14-.38-1.5-.9-.16-.22-.28-.56-.4-1-.11-.45-.22-.9-.33-1.33-.12-.45-.24-.86-.4-1.23-.15-.38-.36-.59-.67-.67-.15-.15-.34-.18-.56-.11-.22.07-.41.15-.56.22-.52.3-.97.63-1.34,1-.36.38-.77.7-1.22,1-.3.22-.58.46-.84.73-.27.25-.58.5-.94.73-1.72,1.04-3.73,1.85-6.03,2.46-.52.15-1.04.23-1.56.28-.52.04-1.08.12-1.67.28-.3.07-.62.08-.96.05-.33-.04-.65-.01-.94.06-.23.07-.69.08-1.39.05-.71-.04-1.17-.08-1.39-.16-.38,0-.75-.02-1.13-.06-.36-.04-.74-.06-1.11-.06-.9-.22-1.74-.4-2.57-.56-.81-.15-1.63-.38-2.46-.67-.36-.15-.68-.28-.94-.39-.25-.11-.58-.24-.94-.4-2.6-1.4-4.68-3.38-6.24-5.91-.97-1.56-1.68-3.44-2.12-5.63-.45-2.2-.73-4.54-.85-7.03-.11-2.49-.15-5.06-.11-7.7s.06-5.25.06-7.87v-15.16c0-.97-.02-2.11-.06-3.4s.13-2.25.51-2.84c.22-.38.67-.7,1.33-1,.45,0,.79-.04,1-.11Z"/>
      <path class="st2" d="M919.76,580.04c.81,0,1.54.07,2.18.22.63.16,1.13.48,1.5,1,.45.59.67,1.62.67,3.07v3.85c0,.81.02,1.74.06,2.78s-.1,1.86-.39,2.46c-.3.52-.73.85-1.28,1-.56.15-1.2.22-1.9.22s-1.45-.04-2.23-.11c-.79-.07-1.51-.04-2.18.11-.52.15-1.04.24-1.56.28-.52.04-1,.13-1.45.28-1.19.38-2.37.91-3.57,1.62-1.19.7-2.12,1.5-2.78,2.4-.38.59-.76,1.21-1.17,1.84s-.8,1.28-1.17,1.95c-.22.59-.42,1.21-.61,1.84-.19.64-.36,1.25-.51,1.84-.15.52-.22,1.06-.22,1.62s-.07,1.1-.23,1.62c-.07.29-.08.57-.05.84.04.25.01.5-.06.73v1.78c-.15.52-.18,1.1-.11,1.73s.11,1.25.11,1.84v16.62c0,.97-.04,1.86-.11,2.67-.07.82-.3,1.49-.67,2.01-.16.23-.4.4-.73.51-.34.11-.69.21-1.06.28h-.56c-.38.07-.77.11-1.22.11h-6.03c-.45-.07-.91-.11-1.39-.11h-1.51c-.36-.15-.74-.28-1.11-.39-.38-.12-.63-.36-.77-.73-.3-.38-.47-.92-.51-1.62-.04-.7-.05-1.43-.05-2.18v-49.46c0-.7.15-1.28.45-1.73.36-.59.92-.97,1.67-1.11.74-.15,1.63-.22,2.67-.22h5.69c.9,0,1.67.05,2.35.16.67.12,1.19.47,1.56,1.06.22.38.35.9.39,1.56.04.67.08,1.32.17,1.95.07.63.19,1.21.39,1.73.18.52.53.79,1.05.79.16-.16.3-.23.45-.23.16,0,.3-.07.45-.22.45-.38.84-.8,1.17-1.28s.76-.91,1.28-1.28c.29-.23.56-.47.77-.73.23-.27.48-.51.79-.73.67-.45,1.36-.9,2.06-1.34.71-.45,1.44-.85,2.18-1.22.74-.3,1.51-.56,2.29-.79.79-.22,1.59-.44,2.4-.67.23-.07.65-.08,1.28-.05.63.04,1.03-.02,1.17-.17Z"/>
      <path class="st2" d="M945.63,579.16c.21.13.34.41.42.85.08.42.08.82.02,1.19v.4c-.06.29-.16.53-.28.71-.11.18-.3.33-.57.42-.29.06-.7.08-1.23.07-.53-.01-.98-.02-1.34-.02h-.74c-.17.07-.31.08-.45.05s-.27-.01-.4.05c-.33.13-.57.45-.74.94-.07.17-.1.36-.07.59.01.23.02.46.02.7v11.69c0,.17,0,.31.02.45.01.13,0,.27-.02.4v.4c-.04.1-.05.19-.05.29s-.04.18-.11.25c-.1.27-.28.45-.54.54-.16.06-.35.1-.57.1h-2.25c-.56,0-.96-.13-1.19-.4-.13-.19-.21-.42-.23-.69-.01-.27-.02-.57-.02-.9v-11.7c0-.16.01-.33.02-.5.02-.16,0-.3-.07-.44v-.7c-.1-.52-.33-.86-.69-.99-.34-.16-.79-.23-1.37-.19s-1.08.05-1.51.05c-.17,0-.31.01-.47.02-.15.01-.27.01-.36-.02-.13-.06-.25-.08-.35-.07s-.21.01-.3-.02c-.36-.17-.57-.44-.62-.8-.05-.36-.07-.79-.07-1.28,0-.21.01-.39.02-.54.01-.17.06-.34.12-.5.07-.17.18-.29.33-.38s.3-.16.47-.22c.06-.04.13-.05.19-.02.07.01.13,0,.21-.02h13.23c.3,0,.59,0,.87.02.28.01.5.08.67.22ZM972.05,579.25c.17.23.25.5.28.8.01.29.02.63.02.99v16.11c0,.36-.01.69-.02.97-.02.28-.1.52-.23.71-.19.27-.53.4-1.02.4h-1.4c-.21,0-.4.01-.59.02-.21.01-.39-.01-.54-.07-.3-.1-.5-.25-.61-.45-.1-.19-.18-.45-.24-.74v-.85c-.04-.1-.05-.23-.02-.38.01-.15.02-.29.02-.42v-7.48c0-.4-.04-.76-.1-1.09-.07-.17-.11-.3-.13-.42-.01-.12-.08-.21-.22-.28-.04-.02-.08-.05-.15-.05-.07.07-.17.13-.3.21-.27.39-.47.84-.64,1.33-.17.5-.35.98-.54,1.44-.4,1.03-.77,2.06-1.11,3.1-.35,1.04-.73,2.06-1.11,3.05-.17.46-.35.98-.52,1.56-.19.58-.46,1-.82,1.26-.17.13-.38.22-.64.23-.27.01-.54.02-.85.02h-.74c-.17-.07-.33-.12-.47-.17-.16-.06-.28-.13-.38-.23-.13-.1-.23-.23-.3-.4-.06-.16-.13-.33-.19-.5-.17-.29-.29-.59-.38-.91-.08-.31-.18-.64-.31-.97-.4-.96-.76-1.95-1.09-2.95-.34-1-.7-1.98-1.1-2.95-.23-.56-.44-1.11-.62-1.68-.18-.56-.47-1.04-.86-1.44-.07,0-.12.01-.16.02-.02.02-.06.02-.1.02-.13.13-.22.29-.24.45-.07.17-.1.33-.08.47.02.15.01.3-.02.47v.85c-.02.13-.05.27-.05.39v6.1c0,.44.01.96.02,1.56.02.62-.05,1.05-.22,1.32-.07.06-.13.15-.19.22-.07.08-.16.15-.25.18-.17.06-.35.11-.57.12-.22.01-.46.02-.71.02h-1.29c-.42,0-.77-.1-1.04-.3-.19-.13-.31-.34-.35-.64-.02-.29-.05-.63-.05-.99v-16.36c0-.29.01-.58.02-.86.02-.28.07-.51.18-.67.13-.24.38-.39.74-.45.07-.04.13-.05.21-.02.06.01.12,0,.19-.02h4.31c.34,0,.59.07.8.24.33.19.56.51.69.94.13.42.28.82.45,1.19.36.93.71,1.86,1.06,2.81.35.93.7,1.89,1.06,2.84.23.5.44,1,.62,1.54.18.53.38,1.04.57,1.54.11.19.21.41.3.62.1.22.24.36.45.42.19.07.35.04.47-.1.11-.13.21-.25.27-.35.23-.36.41-.75.54-1.16s.29-.82.45-1.21c.46-1.1.9-2.21,1.29-3.35.39-1.14.82-2.25,1.28-3.34.17-.47.34-.96.52-1.46.18-.51.51-.87.97-1.06.19-.07.42-.1.67-.1h2.95c.19,0,.4-.01.59-.02.21-.02.39-.01.54.02h.25c.16.06.31.11.47.15.15.04.25.1.31.19Z"/>
    </g>
    <g>
      <path class="st2" d="M378.32,665.05c-3.73,6.66-10.26,11.6-17.58,13.68-2.69.78-5.51,1.17-8.31,1.1-1.72-.04-3.42-.23-5.15-.53-10.29-1.76-20.49-7.19-30.26-5.62-1.02.15-2.06.32-3.1.55-2.89.61-5.81,1.48-8.74,2.35-5.24,1.55-10.54,3.12-15.86,3.25-1.85.04-3.71-.11-5.51-.45-3.8-.66-7.47-2.12-10.73-4.22-3.97-2.52-7.34-5.98-9.65-10.1-5.09-9.14-4.69-21.06,1-29.82,5.45-8.36,14.82-13.36,21.27-20.96,4.77-5.64,7.81-12.53,12.41-18.32,4.56-5.75,13.76-10.99,22.74-10.84,9.01-.15,18.2,5.09,22.76,10.84,1.99,2.5,3.67,5.22,5.34,7.93.95,1.51,1.87,3.03,2.82,4.52h.02c.66,1.06,1.36,2.1,2.1,3.1.68.95,1.38,1.87,2.14,2.76.38.45.78.89,1.17,1.32.85.93,1.74,1.8,2.67,2.67,1.25,1.15,2.54,2.29,3.84,3.41,4.94,4.18,10.07,8.17,13.59,13.57,5.7,8.76,6.09,20.68,1,29.82Z"/>
      <path class="st1" d="M314.46,552.64c0,17.94-9.46,32.47-21.12,32.47s-21.1-14.53-21.1-32.47,9.44-32.47,21.1-32.47,21.12,14.53,21.12,32.47Z"/>
      <path class="st1" d="M264.74,620.36c-10.58,4.88-25.24-4.37-32.75-20.64-7.51-16.29-5.01-33.45,5.56-38.32,10.6-4.88,25.26,4.35,32.77,20.64,7.49,16.27,5,33.43-5.58,38.32Z"/>
      <path class="st1" d="M369.52,552.64c0,17.94-9.44,32.47-21.1,32.47s-21.12-14.53-21.12-32.47,9.46-32.47,21.12-32.47,21.1,14.53,21.1,32.47Z"/>
      <path class="st1" d="M409.79,599.71c-7.51,16.27-22.18,25.53-32.75,20.64-10.6-4.88-13.07-22.04-5.58-38.32,7.51-16.29,22.18-25.53,32.77-20.64,10.58,4.86,13.07,22.02,5.56,38.32Z"/>
      <path class="st0" d="M357.22,615.59c-13.95,3.9-27.38,10.8-36.27,22.29-8.17,9.99-11.49,24.45-7.02,36.35-2.89.61-5.81,1.48-8.74,2.35-7.47-24.05,9.04-48.93,31.67-59.07,5.51-2.63,11.24-4.56,17.05-6,.68.95,1.38,1.87,2.14,2.76.38.45.78.89,1.17,1.32Z"/>
      <path class="st0" d="M281.35,657.63c-1.34,7.32-.57,15.04,2.48,21.74-3.8-.66-7.47-2.12-10.73-4.22-2.48-12.34.59-25.6,6.77-36.48,9.39-16.03,26.19-26.58,43.65-31.24,8.36-2.23,16.92-3.31,25.45-3.56.95,1.51,1.87,3.03,2.82,4.52-30.82,1.32-64.86,16.22-70.44,49.23Z"/>
      <path class="st0" d="M360.74,678.73c-2.69.78-5.51,1.17-8.31,1.1-1.72-.04-3.42-.23-5.15-.53-11.92-11.39-16.06-27.44-4.11-45.68,4.62-6.53,10.77-11.11,16.71-15.36,1.25,1.15,2.54,2.29,3.84,3.41-12.11,8.99-22.61,20.42-20.36,36.1,1.74,9.74,8.82,16.4,17.37,20.96Z"/>
    </g>
  </g>
</svg>