<svg xmlns="http://www.w3.org/2000/svg" viewBox="0 0 512 512" width="100%" height="100%">
  <defs>
    <style>
      .pad-road {
        fill: #14241E;
      }
      .road-marking-route {
        fill: none;
        stroke: #FFFFFF;
        stroke-width: 20;
        stroke-linecap: round;
        opacity: 0.95;
      }
      .toe-bean {
        fill: #FF6B35;
      }
    </style>
    <!-- Clip path to restrict the road lines inside the central pad -->
    <clipPath id="pad-clip">
      <path d="M 256 215 C 295 215, 365 250, 375 310 C 380 345, 355 395, 315 395 C 288 395, 273 382, 256 382 C 239 382, 224 395, 197 395 C 157 395, 132 345, 137 310 C 147 250, 217 215, 256 215 Z" />
    </clipPath>
  </defs>

  <!-- 4 Warm Orange Toe Beans (Snug Arc) -->
  <!-- Toe 1 (Leftmost) -->
  <ellipse cx="150" cy="205" rx="28" ry="38" class="toe-bean" transform="rotate(-30, 150, 205)" />
  <!-- Toe 2 (Center-Left) -->
  <ellipse cx="216" cy="162" rx="26" ry="42" class="toe-bean" transform="rotate(-10, 216, 162)" />
  <!-- Toe 3 (Center-Right) -->
  <ellipse cx="296" cy="162" rx="26" ry="42" class="toe-bean" transform="rotate(10, 296, 162)" />
  <!-- Toe 4 (Rightmost) -->
  <ellipse cx="362" cy="205" rx="28" ry="38" class="toe-bean" transform="rotate(30, 362, 205)" />

  <!-- Central Pad - Dark Road -->
  <path d="M 256 215 C 295 215, 365 250, 375 310 C 380 345, 355 395, 315 395 C 288 395, 273 382, 256 382 C 239 382, 224 395, 197 395 C 157 395, 132 345, 137 310 C 147 250, 217 215, 256 215 Z" class="pad-road" />

  <!-- Overlay Road Marking (Clipped to Pad Shape) -->
  <g clip-path="url(#pad-clip)">
    <!-- Single Bold S-Curve Route Line -->
    <path d="M 256 215 C 230 280, 282 330, 256 395" class="road-marking-route" />
  </g>
</svg>
