<svg xmlns="http://www.w3.org/2000/svg" viewBox="0 0 900 280" width="100%" height="100%">
  <defs>
    <style>
      @import url('https://fonts.googleapis.com/css2?family=Outfit:wght@400;700;800&amp;display=swap');
      .text-brand {
        font-family: 'Outfit', -apple-system, sans-serif;
        font-weight: 800;
        fill: #1B4332;
      }
      .text-tm {
        font-family: 'Outfit', -apple-system, sans-serif;
        font-weight: 700;
        fill: #1B4332;
      }
      .text-tagline {
        font-family: 'Outfit', -apple-system, sans-serif;
        font-weight: 400;
        fill: #6B5B4F;
        letter-spacing: 3px;
      }
      .pad-road {
        fill: #14241E;
      }
      .road-marking-route {
        fill: none;
        stroke: #FFFFFF;
        stroke-width: 20;
        stroke-linecap: round;
        opacity: 0.95;
      }
      .toe-bean {
        fill: #FF6B35;
      }
    </style>
  </defs>

  <!-- Icon Group scaled and placed -->
  <g transform="translate(40, 40)">
    <g transform="scale(0.39)">
      <defs>
        <clipPath id="full-pad-clip">
          <path d="M 256 215 C 295 215, 365 250, 375 310 C 380 345, 355 395, 315 395 C 288 395, 273 382, 256 382 C 239 382, 224 395, 197 395 C 157 395, 132 345, 137 310 C 147 250, 217 215, 256 215 Z" />
        </clipPath>
      </defs>
      
      <!-- Toes -->
      <ellipse cx="150" cy="205" rx="28" ry="38" class="toe-bean" transform="rotate(-30, 150, 205)" />
      <ellipse cx="216" cy="162" rx="26" ry="42" class="toe-bean" transform="rotate(-10, 216, 162)" />
      <ellipse cx="296" cy="162" rx="26" ry="42" class="toe-bean" transform="rotate(10, 296, 162)" />
      <ellipse cx="362" cy="205" rx="28" ry="38" class="toe-bean" transform="rotate(30, 362, 205)" />
      
      <!-- Central Pad -->
      <path d="M 256 215 C 295 215, 365 250, 375 310 C 380 345, 355 395, 315 395 C 288 395, 273 382, 256 382 C 239 382, 224 395, 197 395 C 157 395, 132 345, 137 310 C 147 250, 217 215, 256 215 Z" class="pad-road" />
      <g clip-path="url(#full-pad-clip)">
        <path d="M 256 215 C 230 280, 282 330, 256 395" class="road-marking-route" />
      </g>
    </g>
  </g>

  <!-- Text elements -->
  <text x="280" y="145" font-size="110" class="text-brand">Pawffeur</text>
  <text x="735" y="80" font-size="40" class="text-tm">™</text>
  <text x="282" y="195" font-size="32" class="text-tagline">Every paw gets a chauffeur</text>
</svg>
