<?xml version="1.0" encoding="UTF-8"?>
<svg id="Layer_1" xmlns="http://www.w3.org/2000/svg" version="1.1" viewBox="0 0 1200 1200">
  <!-- Generator: Adobe Illustrator 30.5.1, SVG Export Plug-In . SVG Version: 2.1.4 Build 3)  -->
  <defs>
    <style>
      .st0 {
        fill: #f7f1e3;
      }

      .st1 {
        fill: #3a3f47;
      }
    </style>
  </defs>
  <rect class="st0" width="1200" height="1200"/>
  <g>
    <path class="st1" d="M323.08,558.91c2.3,3.2,3.96,6.75,5.01,10.66,1.06,3.88,1.42,8.59,1.13,14.08-.2,2.19-.54,4.21-1.03,6.06s-1.1,3.57-1.8,5.17c-.2.4-.38.78-.52,1.13-.15.36-.32.73-.52,1.13-.4.7-.78,1.38-1.13,2.03-.36.65-.78,1.26-1.29,1.87-2,2.8-4.42,5.08-7.27,6.81-2.85,1.76-6.06,3.23-9.66,4.42-1.1.4-2.24.65-3.45.75-1.21.09-2.39.31-3.59.6-.6.09-1.21.15-1.8.15s-1.21.05-1.79.15h-22.86c-1.45,0-2.58.31-3.37.91-.99.7-1.49,1.92-1.49,3.67v24.94c0,1.21.03,2.5.07,3.9.05,1.4-.17,2.49-.67,3.28-.4.7-1.3,1.25-2.7,1.65-.7.2-1.45.24-2.24.15-.81-.09-1.6-.15-2.39-.15h-8.7c-1.1,0-2.12-.03-3.08-.08-.95-.05-1.72-.32-2.33-.83-.59-.48-.95-1.26-1.05-2.31-.09-1.06-.15-2.14-.15-3.24v-89.63c0-1.4-.03-3.04-.07-4.95-.05-1.88.17-3.24.67-4.05.39-.59,1.14-1.09,2.24-1.49.2-.09.42-.11.67-.07.24.05.47.01.67-.08h43.32c.9,0,1.8-.01,2.7-.08.9-.05,1.73.03,2.54.23h.75c.51.21,1.06.31,1.65.31s1.14.09,1.64.3c.51.09.94.15,1.34.15s.85.09,1.34.31c1.6.51,3.19.98,4.8,1.41,1.6.46,3.09,1.08,4.49,1.87.51.4,1.06.77,1.65,1.06.6.3,1.18.7,1.79,1.21.51.3.93.62,1.29.98s.77.71,1.26,1.13l.9.9c1.21,1.21,2.19,2.39,3.01,3.59h.01ZM306.59,583.51c.2-1.1.28-2.47.23-4.13-.07-1.64-.23-3.02-.54-4.11-.6-2.19-1.34-3.95-2.24-5.25s-2.24-2.49-4.05-3.59c-1.49-.9-3.35-1.57-5.54-2.02-2.19-.46-4.57-.73-7.11-.83-2.55-.09-5.17-.13-7.88-.08-2.7.05-5.24.08-7.65.08-.3.09-.58.17-.83.23-.24.05-.52.07-.82.07-.99.4-1.65,1.01-1.95,1.8-.4.79-.59,1.87-.59,3.23v21.89c0,1.45.24,2.57.75,3.37.4.6.99,1.03,1.8,1.34.79.3,1.69.47,2.7.52.99.05,2.07.05,3.23,0,1.14-.05,2.22-.07,3.23-.07,5.31,0,10.15-.26,14.54-.77,4.39-.48,7.73-2.24,10.04-5.24.6-.9,1.09-1.87,1.49-2.93.4-1.03.79-2.22,1.21-3.51h-.03Z"/>
    <path class="st1" d="M414.96,646.44c.2,1.1.32,2.22.38,3.31.05,1.1-.47,1.85-1.57,2.24-.6.31-1.3.46-2.1.46h-10.5c-.9,0-1.77-.01-2.62-.08-.86-.05-1.53-.26-2.03-.67-.7-.4-1.22-.98-1.57-1.72-.34-.75-.82-1.37-1.41-1.87-.21-.21-.46-.38-.75-.54-.31-.15-.7-.16-1.21-.07-.51.2-.98.46-1.41.75-.46.3-.93.55-1.42.75-.51.4-1.06.75-1.64,1.06-.6.3-1.21.59-1.8.9-1.3.6-2.65,1.08-4.05,1.41-1.4.36-2.85.73-4.34,1.14-.7.2-1.38.31-2.03.38-.65.05-1.32.11-2.02.21-.3,0-.6.03-.9.08-.31.05-.6.08-.91.08h-1.64c-.99.2-2,.2-3,0h-1.34c-.7-.21-1.38-.28-2.03-.23s-1.26-.03-1.87-.23c-.99-.2-1.95-.38-2.85-.52-.9-.16-1.73-.44-2.55-.83-2.89-1.1-5.36-2.53-7.42-4.27-2.04-1.73-3.67-4.07-4.87-6.96-.31-.7-.59-1.45-.83-2.24-.24-.82-.47-1.65-.67-2.55-.21-.51-.28-.99-.23-1.49s.01-1.01-.08-1.49c-.09-.31-.17-.93-.23-1.88-.05-.94-.01-1.61.08-2.02.2-.99.3-1.85.3-2.55.31-1.09.6-2.22.91-3.37.3-1.16.7-2.18,1.18-3.08,1.71-2.89,3.66-5.09,5.86-6.6,2.19-1.49,5-2.78,8.39-3.88,1.3-.51,2.65-.85,4.05-1.06,1.4-.2,2.8-.44,4.19-.75.79-.2,1.64-.32,2.54-.38.91-.05,1.8-.16,2.7-.38.7-.2,1.4-.28,2.1-.23.7.07,1.45-.01,2.26-.21.7-.21,1.4-.31,2.1-.31s1.45-.09,2.24-.3c2.1-.51,4.02-.93,5.78-1.29,1.73-.34,3.32-1.22,4.72-2.62.9-.9,1.49-1.91,1.8-3,.09-.31.11-.55.07-.75-.05-.21-.01-.4.08-.6s.15-.51.15-.9v-.91c-.09-.39-.17-.79-.23-1.21-.05-.39-.13-.75-.23-1.03-.99-3-3.09-5.04-6.29-6.14-.9-.3-1.96-.52-3.23-.67-1.25-.16-2.53-.21-3.82-.16-1.3.07-2.55.17-3.74.38-1.21.21-2.26.46-3.16.77-.6.2-1.17.47-1.72.82-.55.36-1.08.73-1.57,1.13-.48.4-1.02.95-1.56,1.65-.55.7-.93,1.34-1.13,1.95-.51.99-.93,1.94-1.29,2.85-.34.9-1.08,1.49-2.16,1.79-.82.21-1.65.31-2.55.31h-8.39c-.51,0-1.01.01-1.49.07-.51.05-.95.03-1.34-.07h-1.34c-.21-.09-.46-.16-.75-.16s-.55-.09-.75-.3c-.82-.2-1.34-.85-1.65-1.95-.09-.48-.09-.99,0-1.49.09-.51.2-.94.31-1.34.3-1.09.62-2.11.98-3.08.34-.94.77-1.83,1.26-2.62.3-.51.6-.99.9-1.49.31-.51.6-1.01.9-1.49.82-1.1,1.8-2.15,3.01-3.16.2-.09.48-.34.9-.75.51-.4.94-.75,1.34-1.06.4-.3.85-.59,1.34-.9,1.69-1.09,3.49-1.96,5.4-2.62,1.88-.65,3.84-1.26,5.83-1.87,1.21-.31,2.46-.51,3.76-.6,1.29-.09,2.58-.31,3.88-.6.4-.09,1.02-.09,1.87,0,.86.09,1.38.05,1.57-.15,4.1-.09,8.02.05,11.77.44,3.74.4,7.14,1.16,10.19,2.26,3.06,1.09,5.67,2.57,7.88,4.41,2.19,1.85,3.9,4.23,5.11,7.12.69,1.71,1.09,3.66,1.18,5.86.09,2.19.15,4.44.15,6.73v39.19c0,1.95.21,3.72.6,5.34.09.3.16.62.16.95s.05.69.15.98h-.04ZM392.91,623.37c.09-.51.15-1.08.15-1.72s-.05-1.22-.15-1.72c-.2-.6-.3-1.14-.3-1.64s-.21-.91-.6-1.21c-.51-.39-1.25-.6-2.26-.6-.39.09-.75.17-1.03.23s-.65.13-1.06.23c-.7.2-1.45.34-2.24.44-.79.11-1.6.26-2.39.46-.31.09-.75.15-1.34.15-1.3.31-2.61.51-3.9.6-1.3.09-2.54.36-3.74.75-.79.21-1.56.38-2.24.54-.71.15-1.41.38-2.1.67-2.11.9-3.88,2.24-5.34,4.05-1.45,1.79-1.96,4.29-1.56,7.5.2,1.69.75,3.09,1.64,4.19.7,1.09,1.73,1.96,3.14,2.62,1.4.65,2.93,1.13,4.58,1.42,1.64.3,3.39.38,5.24.21,1.85-.15,3.57-.47,5.17-.98,2.61-.79,4.65-2.07,6.14-3.82,1.49-1.73,2.65-3.92,3.45-6.5.2-.7.32-1.42.38-2.18.05-.75.17-1.53.38-2.33v-1.34l-.03-.03Z"/>
    <path class="st1" d="M431.14,574.95h11.09c1.1,0,2.15.03,3.16.08.99.05,1.79.28,2.39.67.6.4,1.08.93,1.42,1.57.34.65.62,1.4.82,2.24.21.86.4,1.71.6,2.55.21.85.4,1.63.6,2.33,1.21,3.49,2.23,7.1,3.08,10.78.85,3.71,1.83,7.35,2.93,10.94.2.6.34,1.18.44,1.72.09.55.26,1.13.46,1.72.51,1.49.93,3.02,1.26,4.57.36,1.56.78,3.08,1.29,4.57.2.7.44,1.52.75,2.41.3.9.85,1.45,1.64,1.64.51.09.91-.16,1.21-.82.3-.65.55-1.14.75-1.42.51-1.4.87-2.85,1.13-4.34.24-1.49.62-2.94,1.13-4.35.31-.9.55-1.83.75-2.77.21-.94.4-1.87.6-2.78.7-2.39,1.33-4.82,1.87-7.34.55-2.5,1.18-4.95,1.88-7.35.3-1.09.54-2.15.75-3.14.2-1.01.44-2,.75-3.01.39-1.49.79-3.28,1.18-5.39.4-2.1,1.16-3.55,2.26-4.35.7-.39,1.49-.62,2.39-.67.9-.05,1.91-.08,3.01-.08h7.79c1.18,0,2.3.05,3.28.16,1.01.09,1.85.39,2.55.9.51.39.85.93,1.06,1.57.2.65.39,1.26.6,1.87.39,1.4.71,2.77.95,4.11.26,1.34.63,2.73,1.14,4.13,1.18,3.88,2.22,7.89,3.06,11.99.86,4.1,1.84,8.1,2.93,11.99.4,1.21.73,2.42.98,3.67.24,1.25.56,2.42.98,3.53.39,1.4.79,2.45,1.21,3.14.09.09.23.17.38.23s.28.17.38.38c.9-.09,1.46-.42,1.72-.98.24-.55.52-1.17.82-1.87.6-1.6,1.1-3.27,1.52-5.03.39-1.73.85-3.47,1.34-5.17.3-.99.54-1.96.75-2.92.2-.95.44-1.94.75-2.93,1.09-3.1,2-6.25,2.7-9.45.7-3.19,1.55-6.29,2.54-9.29.51-1.4.95-3.08,1.34-5.03.4-1.95,1.06-3.27,1.95-3.96.7-.51,1.49-.79,2.41-.9.9-.11,1.88-.16,3-.16h10.5c.9,0,1.64.11,2.24.31,1.01.39,1.55,1.03,1.65,1.95.09.9-.07,1.88-.46,3-.7,2.3-1.38,4.52-2.02,6.67-.67,2.15-1.38,4.38-2.18,6.67-2.41,7.3-4.72,14.62-6.98,21.96-2.24,7.35-4.57,14.68-6.96,21.96-.51,1.61-.98,3.19-1.42,4.73s-.93,3.12-1.41,4.72c-.4,1.1-.78,2.08-1.13,2.93-.36.85-1.02,1.46-2.03,1.87-.99.51-2.3.7-3.88.6-1.61-.09-3.06-.15-4.35-.15-1.6,0-3.59.01-5.98.07-2.41.05-4.1-.16-5.11-.67-.6-.51-1.03-1.08-1.34-1.72-.3-.65-.54-1.38-.75-2.18-.51-1.4-.87-2.77-1.13-4.11-.24-1.34-.56-2.73-.98-4.13-.3-.9-.55-1.83-.75-2.77-.2-.95-.51-1.94-.9-2.93-.9-2.89-1.68-5.89-2.33-8.99-.65-3.09-1.48-6.14-2.47-9.14-.6-1.8-1.1-3.7-1.49-5.7-.4-2-1.21-3.62-2.41-4.8-.99,0-1.63.38-1.87,1.13s-.52,1.53-.83,2.33c-.7,2-1.22,4-1.56,5.98-.36,2-.87,4-1.57,6.01-1.1,3.59-2.02,7.27-2.78,11.01-.75,3.76-1.68,7.43-2.77,11.02-.2.7-.4,1.49-.6,2.39-.2.9-.4,1.76-.6,2.55s-.47,1.55-.82,2.24c-.36.7-.78,1.25-1.29,1.64-.51.4-1.21.63-2.1.69-.9.05-1.91.08-3,.08h-12.3c-.6-.09-1.16-.21-1.64-.31-.51-.09-.95-.24-1.34-.46-.7-.48-1.21-1.18-1.49-2.1-.31-.9-.6-1.79-.91-2.69-.48-1.52-.99-3.06-1.49-4.65-.51-1.6-.99-3.2-1.49-4.8-2.5-7.41-4.87-14.78-7.12-22.19-2.24-7.41-4.57-14.78-6.96-22.19-.7-2-1.34-3.95-1.95-5.83-.6-1.91-1.21-3.8-1.8-5.71-.2-.59-.42-1.41-.67-2.47-.26-1.03-.17-1.87.23-2.47.3-.39.94-.79,1.94-1.18.6,0,1.01-.05,1.21-.16l-.11.05Z"/>
    <path class="st1" d="M587.63,545.58h3.08c1.14,0,2.3.05,3.45.15,1.14.09,2.18.28,3.08.52.9.26,1.49.63,1.79,1.14.6.79.91,1.92.91,3.37v4.11c0,1.01-.03,2-.08,3.01-.05.99-.28,1.73-.67,2.24-.4.6-.91.98-1.52,1.13-.59.15-1.26.23-2.02.23s-1.49-.03-2.24-.08-1.48-.01-2.18.08c-1.79.4-3.2.87-4.19,1.41-.99.55-1.79,1.68-2.39,3.39-.21.3-.28.56-.23.82.05.26.01.54-.08.83-.09.4-.2,1.01-.3,1.8s-.09,1.45,0,1.95c.2.7.44,1.29.75,1.79.3.51.75.9,1.34,1.21.99.51,2.19.65,3.59.46,1.4-.21,2.7-.21,3.9,0,.48.09.91.11,1.26.07.34-.05.71-.01,1.13.08.9.39,1.55.85,1.95,1.34.2.3.34.77.46,1.41.09.65.2,1.34.3,2.1.09.75.13,1.49.08,2.26-.07.75-.13,1.32-.23,1.72-.09.39-.09.77,0,1.13.09.34.05.71-.15,1.13-.21,1.18-.82,1.95-1.8,2.24-.79.4-1.76.56-2.85.52-1.1-.05-2.19-.07-3.31-.07h-1.03c-.4,0-.75.05-1.06.15h-1.21c-1.69.39-2.76,1.49-3.14,3.31-.21.59-.26,1.3-.15,2.1.09.79.15,1.6.15,2.39v45.43c0,.59.01,1.22.07,1.87.05.65-.01,1.22-.21,1.72v1.64c0,1.6-.26,2.76-.75,3.45-.21.3-.55.52-1.06.69-.51.15-.99.32-1.49.52h-.75c-.51.09-1.06.13-1.65.07-.59-.05-1.14-.07-1.64-.07h-6.59c-.71,0-1.42.01-2.18.07-.75.07-1.38-.01-1.87-.21-1.21-.31-2-.82-2.41-1.52-.3-.48-.47-1.14-.52-1.94-.05-.82-.08-1.61-.08-2.41v-49.77c0-1.69-.09-3.17-.3-4.41-.2-1.25-.9-2.14-2.1-2.63-1.1-.48-2.46-.62-4.05-.38-1.6.26-2.94.13-4.05-.38-1.09-.48-1.79-1.34-2.1-2.54-.2-.51-.28-1.1-.23-1.8.07-.7.08-1.4.08-2.1,0-1.8.09-3.31.3-4.5.21-1.18,1.06-2.03,2.55-2.54.79-.2,1.64-.31,2.55-.31h2.62c.85,0,1.63-.07,2.33-.21.7-.16,1.25-.54,1.64-1.14.7-.99.98-2.26.83-3.82-.15-1.55-.08-3.01.23-4.41.09-.4.16-.82.23-1.21.05-.4.11-.85.21-1.34.4-1.4.82-2.66,1.21-3.82.4-1.16.94-2.23,1.65-3.23,1.4-2.41,3.24-4.33,5.55-5.78,2.3-1.45,4.88-2.57,7.79-3.37.79-.31,1.64-.48,2.54-.54.91-.05,1.8-.16,2.7-.38.31-.09.75-.09,1.34,0,.6.09,1.01.05,1.21-.15h-.01Z"/>
    <path class="st1" d="M637.54,545.58h3.08c1.14,0,2.3.05,3.45.15,1.14.09,2.18.28,3.08.52.9.26,1.49.63,1.79,1.14.6.79.91,1.92.91,3.37v4.11c0,1.01-.03,2-.08,3.01-.05.99-.28,1.73-.67,2.24-.4.6-.91.98-1.52,1.13-.59.15-1.26.23-2.02.23s-1.49-.03-2.24-.08-1.48-.01-2.18.08c-1.79.4-3.2.87-4.19,1.41-.99.55-1.79,1.68-2.39,3.39-.21.3-.28.56-.23.82.05.26.01.54-.08.83-.09.4-.2,1.01-.3,1.8-.09.79-.09,1.45,0,1.95.2.7.44,1.29.75,1.79.3.51.75.9,1.34,1.21.99.51,2.19.65,3.59.46,1.4-.21,2.7-.21,3.9,0,.48.09.91.11,1.26.07.34-.05.71-.01,1.13.08.9.39,1.55.85,1.95,1.34.2.3.34.77.46,1.41.09.65.2,1.34.3,2.1.09.75.13,1.49.08,2.26-.07.75-.13,1.32-.23,1.72-.09.39-.09.77,0,1.13.09.34.05.71-.15,1.13-.21,1.18-.82,1.95-1.8,2.24-.79.4-1.76.56-2.85.52-1.1-.05-2.19-.07-3.31-.07h-1.03c-.4,0-.75.05-1.06.15h-1.21c-1.69.39-2.76,1.49-3.14,3.31-.21.59-.26,1.3-.15,2.1.09.79.15,1.6.15,2.39v45.43c0,.59.01,1.22.07,1.87s-.01,1.22-.21,1.72v1.64c0,1.6-.26,2.76-.75,3.45-.21.3-.55.52-1.06.69-.51.15-.99.32-1.49.52h-.75c-.51.09-1.06.13-1.65.07-.59-.05-1.14-.07-1.64-.07h-6.59c-.71,0-1.42.01-2.18.07-.75.07-1.38-.01-1.87-.21-1.21-.31-2-.82-2.41-1.52-.3-.48-.47-1.14-.52-1.94-.05-.82-.08-1.61-.08-2.41v-49.77c0-1.69-.09-3.17-.3-4.41-.2-1.25-.9-2.14-2.1-2.63-1.1-.48-2.46-.62-4.05-.38-1.6.26-2.94.13-4.05-.38-1.09-.48-1.79-1.34-2.1-2.54-.2-.51-.28-1.1-.23-1.8.07-.7.08-1.4.08-2.1,0-1.8.09-3.31.3-4.5.21-1.18,1.06-2.03,2.55-2.54.79-.2,1.64-.31,2.55-.31h2.62c.85,0,1.63-.07,2.33-.21.7-.16,1.25-.54,1.64-1.14.7-.99.98-2.26.83-3.82-.15-1.55-.08-3.01.23-4.41.09-.4.16-.82.23-1.21.05-.4.11-.85.21-1.34.4-1.4.82-2.66,1.21-3.82.4-1.16.94-2.23,1.65-3.23,1.4-2.41,3.24-4.33,5.55-5.78,2.3-1.45,4.88-2.57,7.79-3.37.79-.31,1.64-.48,2.54-.54.91-.05,1.8-.16,2.7-.38.31-.09.75-.09,1.34,0,.6.09,1.01.05,1.21-.15h-.01Z"/>
    <path class="st1" d="M734.05,613.02c.21.79.21,1.71,0,2.7-.2,1.01-.55,1.64-1.03,1.95-.51.4-1.24.67-2.18.83-.94.15-2,.24-3.14.3-1.16.05-2.31.05-3.45,0-1.16-.05-2.18-.08-3.08-.08h-38.6c-.65,0-1.24.11-1.72.31-.82.39-1.3.79-1.52,1.21-.2.2-.39.56-.59,1.13-.21.55-.26,1.08-.16,1.56.21.6.32,1.18.38,1.72.05.55.17,1.14.38,1.72.82,2.41,1.77,4.38,2.93,5.93,1.16,1.56,2.71,2.93,4.72,4.13.82.51,1.63.83,2.49.98.85.15,1.72.38,2.62.67.79.21,1.88.36,3.31.46,1.4.09,2.58.05,3.59-.15h1.34c.99-.21,1.92-.42,2.77-.69.85-.24,1.68-.52,2.47-.82,1.01-.51,2.14-1.16,3.39-1.95,1.24-.79,2.16-1.6,2.77-2.41.51-.7,1.02-1.37,1.57-2.02s1.22-1.13,2.02-1.42c1.01-.48,2.27-.71,3.82-.67,1.55.05,2.97.07,4.27.07.6,0,1.22-.01,1.87-.07.65-.05,1.22.01,1.72.23h1.49c1.01.2,1.71.44,2.1.75.4.2.63.65.69,1.34.05.7-.03,1.3-.23,1.79-.51,1.4-1.06,2.65-1.64,3.76-.6,1.09-1.3,2.19-2.1,3.28-2.22,3.31-4.7,5.95-7.5,7.96s-6.29,3.7-10.5,5.09c-1.1.4-2.22.65-3.31.75-1.1.09-2.24.31-3.45.6-.4.09-.83.13-1.26.08-.46-.05-.87-.03-1.29.07h-1.64c-.51.21-1.08.28-1.72.23-.65-.05-1.22-.13-1.72-.23-.79-.09-1.49-.09-2.1,0s-1.25.05-1.95-.15c-.51-.2-1.03-.3-1.64-.3s-1.16-.09-1.65-.31c-1.09-.2-2.19-.42-3.28-.67-1.1-.24-2.1-.62-3.01-1.13-1.09-.4-2.11-.78-3.08-1.13-.94-.36-1.83-.78-2.62-1.29-3.2-2-6.05-4.31-8.53-6.96-2.5-2.65-4.56-5.73-6.14-9.22-.51-1.1-.9-2.23-1.21-3.37-.3-1.16-.7-2.33-1.21-3.53-.09-.39-.15-.78-.15-1.13s-.05-.73-.15-1.13c-.4-1.21-.65-2.5-.75-3.9-.09-1.4-.2-2.8-.31-4.19,0-.51-.01-1.03-.07-1.64s-.03-1.16.07-1.65v-1.79l.46-3.59c.4-1.71.75-3.35,1.06-4.96.3-1.6.75-3.09,1.34-4.49,4.29-10.39,11.58-17.74,21.88-22.04,1.4-.6,2.84-1.02,4.27-1.26,1.45-.24,2.97-.56,4.57-.98.79-.09,1.55-.15,2.24-.15s1.45-.05,2.24-.15c5.11-.11,9.46.47,13.13,1.72,3.64,1.24,6.91,2.86,9.81,4.87.91.6,1.8,1.26,2.7,2.02.91.77,1.71,1.53,2.41,2.33.3.51.7.91,1.18,1.21.82,1.1,1.56,2.23,2.26,3.37.7,1.16,1.45,2.33,2.24,3.53.51.9.93,1.83,1.26,2.77.36.95.73,1.99,1.13,3.08.51,1.3.91,2.65,1.21,4.05.31,1.4.65,2.8,1.06,4.19.2.82.26,1.68.21,2.63-.05.94.03,1.83.23,2.62v1.64h.01ZM711.58,604.18c.7-.99.77-2.22.23-3.66-.55-1.45-.98-2.53-1.29-3.23-1.4-2.7-3.24-4.78-5.55-6.22-2.3-1.45-5.5-2.23-9.58-2.33-.31.21-.65.26-1.06.15-.4-.09-.75-.09-1.03,0-.51.21-1.06.32-1.65.38-.6.07-1.16.17-1.64.38-4.41,1.41-7.65,4.17-9.74,8.25-.21.4-.42.93-.69,1.57-.24.65-.42,1.3-.52,1.95-.09.65-.08,1.26.08,1.87.15.6.47,1.1.98,1.49.79.51,1.88.75,3.28.75h20.68c1.4,0,2.88-.01,4.42-.07,1.55-.05,2.57-.47,3.08-1.29h.01Z"/>
    <path class="st1" d="M753.39,575.26h11.24c1.1,0,2.11.05,3.01.15s1.55.46,1.95,1.03c.48.6.79,1.42.9,2.49.09,1.03.15,2.11.15,3.23v32.82c0,3.59.15,6.99.46,10.2.3,3.19,1.18,5.83,2.7,7.94,1.4,2.1,3.64,3.59,6.73,4.5.51.09.93.15,1.29.15s.77.05,1.26.15,1.06.15,1.64.15,1.06-.05,1.34-.15c.51-.2.93-.24,1.29-.15.34.09.71.05,1.13-.15,2.1-.51,3.74-1.16,4.95-1.95,1.8-1.1,3.23-2.53,4.27-4.27,1.03-1.73,1.79-3.7,2.24-5.83.44-2.15.71-4.56.83-7.2.09-2.63.15-5.42.15-8.31v-30.66c0-.94.2-1.72.6-2.33.48-.9,1.24-1.41,2.24-1.56.99-.16,2.19-.23,3.59-.23h10.81c.9,0,1.64.2,2.24.6.79.48,1.25,1.25,1.34,2.24s.15,2.15.15,3.45v67.16c0,.99-.2,1.73-.6,2.24-.51.79-1.25,1.25-2.24,1.34-1.01.09-2.04.15-3.16.15h-8.08c-1.1,0-2.08-.05-2.93-.15s-1.53-.51-2.02-1.21c-.21-.3-.38-.75-.54-1.34-.15-.6-.3-1.21-.44-1.79-.16-.6-.32-1.16-.54-1.65-.2-.51-.48-.79-.9-.9-.2-.2-.46-.24-.75-.15s-.55.2-.75.3c-.7.4-1.3.85-1.8,1.34-.48.51-1.03.94-1.64,1.34-.4.3-.78.62-1.13.98-.36.34-.78.67-1.26.98-2.31,1.4-5.01,2.49-8.1,3.31-.7.2-1.4.31-2.1.38-.7.05-1.45.16-2.24.38-.4.09-.83.11-1.29.07-.44-.05-.87-.01-1.26.08-.31.09-.93.11-1.87.07-.95-.05-1.57-.11-1.87-.21-.51,0-1.01-.03-1.52-.08-.48-.05-.99-.08-1.49-.08-1.21-.3-2.34-.54-3.45-.75-1.09-.2-2.19-.51-3.31-.9-.48-.2-.91-.38-1.26-.52-.34-.15-.78-.32-1.26-.54-3.49-1.88-6.29-4.54-8.39-7.94-1.3-2.1-2.26-4.62-2.85-7.57-.6-2.96-.98-6.1-1.14-9.45-.15-3.35-.2-6.8-.15-10.35s.08-7.06.08-10.58v-20.37c0-1.3-.03-2.84-.08-4.57s.17-3.02.69-3.82c.3-.51.9-.94,1.79-1.34.6,0,1.06-.05,1.34-.15v-.03Z"/>
    <path class="st1" d="M885,573.16c1.09,0,2.07.09,2.93.3.85.21,1.52.65,2.02,1.34.6.79.9,2.18.9,4.13v5.17c0,1.09.03,2.34.08,3.74s-.13,2.5-.52,3.31c-.4.7-.98,1.14-1.72,1.34-.75.2-1.61.3-2.55.3s-1.95-.05-3-.15c-1.06-.09-2.03-.05-2.93.15-.7.2-1.4.32-2.1.38-.7.05-1.34.17-1.95.38-1.6.51-3.19,1.22-4.8,2.18-1.6.94-2.85,2.02-3.74,3.23-.51.79-1.02,1.63-1.57,2.47s-1.08,1.72-1.57,2.62c-.3.79-.56,1.63-.82,2.47-.26.86-.48,1.68-.69,2.47-.2.7-.3,1.42-.3,2.18s-.09,1.48-.31,2.18c-.09.39-.11.77-.07,1.13.05.34.01.67-.08.98v2.39c-.2.7-.24,1.48-.15,2.33s.15,1.68.15,2.47v22.34c0,1.3-.05,2.5-.15,3.59-.09,1.1-.4,2-.9,2.7-.21.31-.54.54-.98.69-.46.15-.93.28-1.42.38h-.75c-.51.09-1.03.15-1.64.15h-8.1c-.6-.09-1.22-.15-1.87-.15h-2.03c-.48-.2-.99-.38-1.49-.52-.51-.16-.85-.48-1.03-.98-.4-.51-.63-1.24-.69-2.18-.05-.94-.07-1.92-.07-2.93v-66.47c0-.94.2-1.72.6-2.33.48-.79,1.24-1.3,2.24-1.49.99-.2,2.19-.3,3.59-.3h7.65c1.21,0,2.24.07,3.16.21.9.16,1.6.63,2.1,1.42.3.51.47,1.21.52,2.1.05.9.11,1.77.23,2.62.09.85.26,1.63.52,2.33.24.7.71,1.06,1.41,1.06.21-.21.4-.31.6-.31.21,0,.4-.09.6-.3.6-.51,1.13-1.08,1.57-1.72s1.02-1.22,1.72-1.72c.39-.31.75-.63,1.03-.98.31-.36.65-.69,1.06-.98.9-.6,1.83-1.21,2.77-1.8.95-.6,1.94-1.14,2.93-1.64.99-.4,2.03-.75,3.08-1.06,1.06-.3,2.14-.59,3.23-.9.31-.09.87-.11,1.72-.07.85.05,1.38-.03,1.57-.23h-.01Z"/>
    <path class="st1" d="M919.77,571.98c.28.17.46.55.56,1.14.11.56.11,1.1.03,1.6v.54c-.08.39-.21.71-.38.95-.15.24-.4.44-.77.56-.39.08-.94.11-1.65.09-.71-.01-1.32-.03-1.8-.03h-.99c-.23.09-.42.11-.6.07s-.36-.01-.54.07c-.44.17-.77.6-.99,1.26-.09.23-.13.48-.09.79.01.31.03.62.03.94v15.71c0,.23,0,.42.03.6.01.17,0,.36-.03.54v.54c-.05.13-.07.26-.07.39s-.05.24-.15.34c-.13.36-.38.6-.73.73-.21.08-.47.13-.77.13h-3.02c-.75,0-1.29-.17-1.6-.54-.17-.26-.28-.56-.31-.93-.01-.36-.03-.77-.03-1.21v-15.72c0-.21.01-.44.03-.67.03-.21,0-.4-.09-.59v-.94c-.13-.7-.44-1.16-.93-1.33-.46-.21-1.06-.31-1.84-.26s-1.45.07-2.03.07c-.23,0-.42.01-.63.03-.2.01-.36.01-.48-.03-.17-.08-.34-.11-.47-.09s-.28.01-.4-.03c-.48-.23-.77-.59-.83-1.08s-.09-1.06-.09-1.72c0-.28.01-.52.03-.73.01-.23.08-.46.16-.67.09-.23.24-.39.44-.51s.4-.21.63-.3c.08-.05.17-.07.26-.03.09.01.17,0,.28-.03h17.78c.4,0,.79,0,1.17.03.38.01.67.11.9.3h0ZM955.28,572.1c.23.31.34.67.38,1.08.01.39.03.85.03,1.33v21.65c0,.48-.01.93-.03,1.3-.03.38-.13.7-.31.95-.26.36-.71.54-1.37.54h-1.88c-.28,0-.54.01-.79.03-.28.01-.52-.01-.73-.09-.4-.13-.67-.34-.82-.6-.13-.26-.24-.6-.32-.99v-1.14c-.05-.13-.07-.31-.03-.51.01-.2.03-.39.03-.56v-10.05c0-.54-.05-1.02-.13-1.46-.09-.23-.15-.4-.17-.56-.01-.16-.11-.28-.3-.38-.05-.03-.11-.07-.2-.07-.09.09-.23.17-.4.28-.36.52-.63,1.13-.86,1.79-.23.67-.47,1.32-.73,1.94-.54,1.38-1.03,2.77-1.49,4.17-.47,1.4-.98,2.77-1.49,4.1-.23.62-.47,1.32-.7,2.1-.26.78-.62,1.34-1.1,1.69-.23.17-.51.3-.86.31-.36.01-.73.03-1.14.03h-.99c-.23-.09-.44-.16-.63-.23-.21-.08-.38-.17-.51-.31-.17-.13-.31-.31-.4-.54-.08-.21-.17-.44-.26-.67-.23-.39-.39-.79-.51-1.22-.11-.42-.24-.86-.42-1.3-.54-1.29-1.02-2.62-1.46-3.96-.46-1.34-.94-2.66-1.48-3.96-.31-.75-.59-1.49-.83-2.26-.24-.75-.63-1.4-1.16-1.94-.09,0-.16.01-.21.03-.03.03-.08.03-.13.03-.17.17-.3.39-.32.6-.09.23-.13.44-.11.63.03.2.01.4-.03.63v1.14c-.03.17-.07.36-.07.52v8.2c0,.59.01,1.29.03,2.1.03.83-.07,1.41-.3,1.77-.09.08-.17.2-.26.3-.09.11-.21.2-.34.24-.23.08-.47.15-.77.16-.3.01-.62.03-.95.03h-1.73c-.56,0-1.03-.13-1.4-.4-.26-.17-.42-.46-.47-.86-.03-.39-.07-.85-.07-1.33v-21.99c0-.39.01-.78.03-1.16.03-.38.09-.69.24-.9.17-.32.51-.52.99-.6.09-.05.17-.07.28-.03.08.01.16,0,.26-.03h5.79c.46,0,.79.09,1.08.32.44.26.75.69.93,1.26.17.56.38,1.1.6,1.6.48,1.25.95,2.5,1.42,3.78.47,1.25.94,2.54,1.42,3.82.31.67.59,1.34.83,2.07.24.71.51,1.4.77,2.07.15.26.28.55.4.83.13.3.32.48.6.56.26.09.47.05.63-.13.15-.17.28-.34.36-.47.31-.48.55-1.01.73-1.56s.39-1.1.6-1.63c.62-1.48,1.21-2.97,1.73-4.5.52-1.53,1.1-3.02,1.72-4.49.23-.63.46-1.29.7-1.96.24-.69.69-1.17,1.3-1.42.26-.09.56-.13.9-.13h3.96c.26,0,.54-.01.79-.03.28-.03.52-.01.73.03h.34c.21.08.42.15.63.2.2.05.34.13.42.26h0Z"/>
  </g>
</svg>